<svg xmlns="http://www.w3.org/2000/svg" viewBox="0 0 630.56 283.18"><path d="M100.32,160.94c-1.52,3-2.68,4.88-3.5,6.92q-9.41,23.35-18.67,46.78c-1.24,3.15-3,5.58-6.25,7Q38,236.4,4.21,251.29c-1,.44-2.07.72-4.21,1.46.56-2.62.7-4.62,1.4-6.4Q31.27,171.1,61.22,95.89,79,51.18,96.85,6.47c.77-1.93,1.87-3.73,3.26-6.47a63.45,63.45,0,0,1,3.29,6q47.94,120.27,95.78,240.58c.61,1.55.89,3.23,1.59,5.84a51.58,51.58,0,0,1-6-1.7c-21.65-9.52-43.23-19.15-64.91-28.59a13.37,13.37,0,0,1-7.71-8c-6.06-15.52-12.33-31-18.56-46.42C102.8,165.82,101.79,164,100.32,160.94Z" style="fill:#302d7f"/><path d="M300,251.28a28,28,0,0,1-4.14-1.1c-22.46-9.81-44.92-19.59-67.27-29.63a10.92,10.92,0,0,1-5.11-5.44q-26.74-66.44-53.17-133a11.13,11.13,0,0,1,.13-9q14.19-33.27,28.29-66.59a14.22,14.22,0,0,1,3.61-5q49.53,124.38,99,248.75Z" style="fill:#e20f19"/><text transform="translate(301.34 228.24)" style="font-size:250px;fill:#9CA3AF;font-family:SymbolMT, Symbol">kit</text></svg>