<svg xmlns="http://www.w3.org/2000/svg" width="980" height="886" viewBox="0 0 980 886">
  <defs>
    <style>
      .cls-1 {
        fill-rule: evenodd;
      }
    </style>
  </defs>
  <path id="Color_Fill_1" data-name="Color Fill 1" class="cls-1" d="M476,0c13.446-.047,28.062-1.284,39,2,72.233,21.688,94.355,98.627,130,157,76.769,125.718,144.08,258.411,221,384,23.717,38.723,43.612,79.63,67,118,8.413,13.8,13.6,28.188,22,42,7.263,11.945,16.367,24.775,21,39,19.418,59.615-17.16,109.458-51,130-22.178,13.462-54.9,13-91,13l-127,1H254c-17.421,0-39.438,2.387-55-1H179c-22.046,0-49.938,3.381-70-1H88c-37.917-9.028-65.9-31.332-80-64-7.341-17.011-12.138-49.258-5-71,7.257-22.1,18.892-40.811,30-59,19.123-31.314,35.118-64.186,54-95,15.292-24.956,26.739-51.025,42-76C185.8,426.055,235.983,327.778,293,235c29.269-47.627,54.053-97.818,83-145,14.152-23.067,25.731-52.2,47-68A132.762,132.762,0,0,1,455,5Zm5,56c-6.227,4.481-16.55,5.316-23,10-13.527,9.823-20.018,30.53-29,45-23.621,38.052-44.257,78.274-68,117-58.921,96.105-110.963,197.959-170,294-17.76,28.893-31.337,59.085-49,88-25.215,41.279-46.583,85.28-72,127-8.734,14.337-22.141,37.887-12,62,5.341,12.7,21.933,28.164,36,32l55,1,99,1,469-1H839c24.407,0,47.639,1.419,62-8,16.067-10.538,31.824-35.328,23-64-5.507-17.892-18.676-34.794-28-50-14.29-23.307-24.761-47.7-39-71C767.946,493.289,690.109,339.528,601,194c-17.872-29.187-33.256-59.477-51-88C533.782,79.931,524.039,55.68,481,56ZM589,274c37.143-.379,56.129,18.717,66,46,4.109,11.358,6.236,32.4,1,45-9.723,23.389-28.324,36-56,42-12.288,2.666-25.607-1.919-33-5-26.938-11.225-54.167-46.314-37-87,6.688-15.851,21.111-29.349,37-36C573.2,276.4,583.09,277.6,589,274ZM831,777c-114.1.037-230.525-.947-343-1,0.485-15.644,8.716-28.712,15-39,9.143-14.969,13.082-35,27-45,8.366-6.01,19.857-9.045,30-13v-1c-5.13-2.862-12.28-7.778-13-15,4.961-3.862,16.857-20.73,18-28-10.162-3.517-17.8-14.919-26-21-21.524-15.961-41.44-33.039-63-49-9.428-6.98-18.491-19.82-30-24a41.361,41.361,0,0,1-11,11v1h1c15.76,25.6,55.876,48.359,63,80,3.558,15.8-2.722,34.35-8,43-4.723,7.741-11.209,15.2-16,23-12.653,20.6-22.629,42.7-35,63-8.689,14.257-17.026,38.88-30,48-19.549,13.741-44.733-5.91-45-26,7.049-9.189,10.227-23.132,15-34,4.966-11.308,12.291-23.031,18-34,6.043-11.61,9.906-23.206,16-35,3.8-7.355,15.393-27.328,12-40-3.979-14.86-44.183-44.864-58-52-5.566,60.789-15.943,121.333-34,170-8.195,22.087-10.512,47.652-40,48-6.512-4.944-14.876-6.746-18-15-5.768-15.24.155-35.392,4-47,9.783-29.532,16.627-55.545,24-88,2.01-8.849-.323-28.619-2-36V607c-4.675-21.328-3.771-55.926,2-75,4.2-13.872,12.284-22.789,20-33,3.082-4.078,8.018-5.589,10-11,0.814-.611-2.578-5.079-4-7-6.234-8.423-12.282-16.534-17-27-8.519-18.9-18.747-72.74-6-94,5.555-9.265,18.738-17.6,30-21,13.07-3.942,56.127-.884,68,2l40,4c43.605,10.92,73.917,12.05,95,46,9.953,16.027,9.706,44.259,15,64q1,9,2,18c6.009,23.612,5.97,49.033,12,74,2.067,8.56,6.619,24.6,3,34-3.654,9.49-13.986,13.823-23,18v1h1c5.158,5.476,12.993,11.607,19,16,2,1.459,8.584,5.734,9,5,6.633-6.451,12.841-21.976,23-24,7.56,7.542,18.257,12.722,27,19,2.445,1.756,5.021,5.96,8,7,10.76,3.758,22.721-3.356,33,0,12.376,4.041,23.178,12.247,35,17l30,6c20.648,8.726,23.827,39.9,42,52,9.876,6.577,23.243,8.364,33,15C825.23,724.039,830.023,751.033,831,777ZM356,394c-0.9,9.884,11.2,37.98,16,48,6.805-4.357,35.592-32.226,38-39C391.032,401.891,377.476,394.35,356,394Zm146,93c-9.5,9.966-36.2,27.977-39,42,19.79,12.911,35.344,32.54,56,45v-4c-4.487-7.184-2.726-19.031-5-28-4.275-16.859-9.3-36.157-10-55h-2Z"/>
</svg>
